M48
;DRILL file {KiCad (5.0.2)-1} date 10.03.2019 22:08:02
;FORMAT={-:-/ absolute / inch / decimal}
FMAT,2
INCH,TZ
T1C0.0472
%
G90
G05
T1
X7.857Y-2.9037
X6.5002Y-2.5737
X8.417Y-3.8437
X7.358Y-5.3113
X7.587Y-3.5237
X8.048Y-5.3113
X8.4117Y-3.5237
X7.947Y-3.5237
X8.7013Y-4.172
X4.9102Y-2.5537
X4.723Y-5.3113
X7.8717Y-3.8437
X7.857Y-2.5737
X7.9286Y-3.2137
X7.587Y-3.2137
X8.7013Y-5.207
X8.407Y-2.5737
X6.668Y-5.3113
X8.7013Y-4.517
X6.323Y-5.3113
X8.7Y-4.86
X7.013Y-5.3113
X8.6086Y-3.2137
X8.2686Y-3.2137
X4.107Y-2.5537
X5.717Y-2.5637
X7.703Y-5.3113
X7.307Y-2.9037
X7.3102Y-2.5737
X8.407Y-2.9037
X5.978Y-5.3113
T0
M30
