M48
;DRILL file {KiCad (5.0.2)-1} date 10.03.2019 22:08:02
;FORMAT={-:-/ absolute / inch / decimal}
FMAT,2
INCH,TZ
T1C0.0157
T2C0.0315
T3C0.0320
T4C0.0374
T5C0.0394
T6C0.0433
T7C0.0512
T8C0.1260
%
G90
G05
T1
X3.9093Y-4.0596
X3.92Y-4.35
X3.94Y-4.035
X3.95Y-4.4465
X3.95Y-4.505
X4.005Y-3.69
X4.045Y-4.5035
X4.05Y-3.755
X4.075Y-4.5321
X4.08Y-3.88
X4.16Y-3.43
X4.21Y-4.61
X4.22Y-4.805
X4.2629Y-3.6775
X4.27Y-4.05
X4.28Y-4.27
X4.29Y-3.5
X4.3Y-3.6644
X4.34Y-3.675
X4.3678Y-3.7028
X4.4289Y-3.755
X4.4683Y-3.755
X4.47Y-3.26
X4.47Y-3.35
X4.49Y-4.6728
X4.52Y-4.01
X4.52Y-4.7298
X4.5394Y-4.0498
X4.5398Y-4.0898
X4.54Y-3.8963
X4.54Y-3.9356
X4.54Y-3.975
X4.54Y-4.13
X4.545Y-4.265
X4.5455Y-4.2251
X4.61Y-4.455
X4.665Y-4.175
X4.7Y-3.77
X4.7007Y-4.1435
X4.745Y-4.83
X4.81Y-4.45
X4.87Y-4.34
X4.87Y-4.525
X4.955Y-3.43
X5.05Y-4.73
X5.085Y-3.515
X5.27Y-3.25
X5.27Y-3.35
X5.4Y-4.22
X5.5Y-3.565
X5.515Y-4.1035
X5.765Y-3.43
X5.82Y-4.705
X5.85Y-4.22
X5.89Y-3.48
X5.97Y-4.1035
X6.06Y-4.11
X6.0988Y-4.1035
X6.105Y-3.565
X6.1382Y-4.1035
X6.16Y-4.695
X6.1776Y-4.1035
X6.22Y-4.1035
X6.265Y-4.1035
X6.275Y-3.565
X6.305Y-4.1035
X6.35Y-4.8
X6.575Y-3.42
X6.605Y-4.8
X6.605Y-4.9875
X6.66Y-4.8
X6.6888Y-3.4712
X6.8112Y-4.9938
X6.915Y-4.83
X6.9356Y-3.565
X6.97Y-4.81
X7.03Y-4.91
X7.0768Y-4.103
X7.1105Y-4.0814
X7.1383Y-4.0536
X7.1661Y-4.0258
X7.28Y-3.11
X7.2868Y-3.8648
X7.3902Y-3.8352
X7.42Y-3.73
X7.47Y-3.2
X7.5416Y-5.09
X7.63Y-4.16
X7.96Y-2.68
X8.07Y-2.67
X8.08Y-4.
X8.09Y-4.07
X8.31Y-5.06
X8.315Y-4.375
X8.315Y-4.715
X8.32Y-5.415
X8.51Y-2.67
X8.63Y-2.67
T2
X5.92Y-4.8
X5.92Y-5.1937
X4.07Y-2.777
X4.07Y-2.877
X4.07Y-2.977
X4.07Y-3.077
X4.07Y-3.177
X4.07Y-3.277
X4.07Y-3.377
X4.07Y-3.477
X4.57Y-2.777
X4.57Y-2.877
X4.57Y-2.977
X4.57Y-3.077
X4.57Y-3.177
X4.57Y-3.277
X4.57Y-3.377
X4.57Y-3.477
X4.1079Y-4.575
X4.3Y-4.575
X6.265Y-4.8
X6.265Y-5.1937
X5.36Y-4.5631
X5.36Y-4.76
X6.47Y-2.775
X6.47Y-2.875
X6.47Y-2.975
X6.47Y-3.075
X6.47Y-3.175
X6.47Y-3.275
X6.47Y-3.375
X6.47Y-3.475
X6.97Y-2.775
X6.97Y-2.875
X6.97Y-2.975
X6.97Y-3.075
X6.97Y-3.175
X6.97Y-3.275
X6.97Y-3.375
X6.97Y-3.475
X5.67Y-2.775
X5.67Y-2.875
X5.67Y-2.975
X5.67Y-3.075
X5.67Y-3.175
X5.67Y-3.275
X5.67Y-3.375
X5.67Y-3.475
X6.17Y-2.775
X6.17Y-2.875
X6.17Y-2.975
X6.17Y-3.075
X6.17Y-3.175
X6.17Y-3.275
X6.17Y-3.375
X6.17Y-3.475
X5.21Y-4.5631
X5.21Y-4.76
X4.87Y-2.775
X4.87Y-2.875
X4.87Y-2.975
X4.87Y-3.075
X4.87Y-3.175
X4.87Y-3.275
X4.87Y-3.375
X4.87Y-3.475
X5.37Y-2.775
X5.37Y-2.875
X5.37Y-2.975
X5.37Y-3.075
X5.37Y-3.175
X5.37Y-3.275
X5.37Y-3.375
X5.37Y-3.475
T3
X3.41Y-4.595
X3.41Y-4.795
X3.71Y-4.595
X3.71Y-4.795
T4
X5.78Y-2.485
X5.8784Y-2.485
X5.9769Y-2.485
X6.0753Y-2.485
X7.37Y-2.825
X7.4684Y-2.825
X7.5669Y-2.825
X7.6653Y-2.825
X7.3731Y-2.495
X7.4716Y-2.495
X7.57Y-2.495
X7.6684Y-2.495
X8.47Y-2.825
X8.5684Y-2.825
X8.6669Y-2.825
X8.7653Y-2.825
X7.92Y-2.825
X8.0184Y-2.825
X8.1169Y-2.825
X8.2153Y-2.825
X6.5631Y-2.495
X6.6616Y-2.495
X6.76Y-2.495
X6.8584Y-2.495
X8.48Y-3.765
X8.5784Y-3.765
X8.6769Y-3.765
X8.7753Y-3.765
X8.4747Y-3.445
X8.5731Y-3.445
X8.6716Y-3.445
X8.77Y-3.445
X8.01Y-3.445
X8.1084Y-3.445
X8.2069Y-3.445
X4.9731Y-2.475
X5.0716Y-2.475
X5.17Y-2.475
X5.2684Y-2.475
X7.9347Y-3.765
X8.0331Y-3.765
X8.1316Y-3.765
X8.23Y-3.765
X7.92Y-2.495
X8.0184Y-2.495
X8.1169Y-2.495
X8.2153Y-2.495
X8.47Y-2.495
X8.5684Y-2.495
X8.6669Y-2.495
X8.7653Y-2.495
X4.17Y-2.475
X4.2684Y-2.475
X4.3669Y-2.475
X4.4653Y-2.475
T5
X3.57Y-4.155
X3.57Y-4.255
X3.57Y-4.355
X3.57Y-4.455
X7.5416Y-5.39
X7.64Y-5.39
X5.87Y-3.205
X5.87Y-3.305
X5.87Y-3.405
X5.97Y-3.205
X5.97Y-3.305
X5.97Y-3.405
X5.07Y-3.205
X5.07Y-3.305
X5.07Y-3.405
X5.17Y-3.205
X5.17Y-3.305
X5.17Y-3.405
X3.75Y-4.195
X3.75Y-4.295
X3.75Y-4.395
X3.85Y-4.195
X3.85Y-4.295
X3.85Y-4.395
X5.8166Y-5.39
X5.915Y-5.39
X4.27Y-3.205
X4.27Y-3.305
X4.27Y-3.405
X4.37Y-3.205
X4.37Y-3.305
X4.37Y-3.405
X7.1966Y-5.39
X7.295Y-5.39
X7.65Y-3.445
X7.7484Y-3.445
X4.09Y-5.095
X4.19Y-5.095
X4.29Y-5.095
X7.8866Y-5.39
X7.985Y-5.39
X6.67Y-3.205
X6.67Y-3.305
X6.67Y-3.405
X6.77Y-3.205
X6.77Y-3.305
X6.77Y-3.405
X8.78Y-4.235
X8.78Y-4.3334
X4.5616Y-5.39
X4.66Y-5.39
X3.14Y-2.88
X3.14Y-2.98
X3.14Y-3.08
X3.14Y-3.18
X3.14Y-3.28
X3.14Y-3.38
X3.14Y-3.48
X3.14Y-3.58
X3.14Y-3.68
X3.14Y-3.78
X3.14Y-3.88
X3.14Y-3.98
X3.14Y-4.08
X3.14Y-4.18
X3.14Y-4.28
X3.14Y-4.38
X3.14Y-4.48
X3.14Y-4.58
X3.14Y-4.68
X3.14Y-4.78
X3.24Y-2.88
X3.24Y-2.98
X3.24Y-3.08
X3.24Y-3.18
X3.24Y-3.28
X3.24Y-3.38
X3.24Y-3.48
X3.24Y-3.58
X3.24Y-3.68
X3.24Y-3.78
X3.24Y-3.88
X3.24Y-3.98
X3.24Y-4.08
X3.24Y-4.18
X3.24Y-4.28
X3.24Y-4.38
X3.24Y-4.48
X3.24Y-4.58
X3.24Y-4.68
X3.24Y-4.78
X7.9916Y-3.135
X8.09Y-3.135
X7.65Y-3.135
X7.7484Y-3.135
X8.78Y-5.27
X8.78Y-5.3684
X6.5066Y-5.39
X6.605Y-5.39
X8.78Y-4.58
X8.78Y-4.6784
X6.1616Y-5.39
X6.26Y-5.39
X8.7787Y-4.923
X8.7787Y-5.0214
X6.8516Y-5.39
X6.95Y-5.39
X8.6716Y-3.135
X8.77Y-3.135
X8.3316Y-3.135
X8.43Y-3.135
T6
X5.755Y-4.205
X5.755Y-4.305
X5.755Y-4.405
X8.04Y-4.845
X8.04Y-4.945
X8.04Y-5.045
X7.345Y-4.845
X7.345Y-4.945
X7.345Y-5.045
X5.3Y-4.21
X5.3Y-4.31
X5.3Y-4.41
X7.695Y-4.845
X7.695Y-4.945
X7.695Y-5.045
T7
X3.295Y-5.09
X3.295Y-5.29
X4.91Y-5.275
X5.11Y-5.275
X5.365Y-5.275
X5.565Y-5.275
T8
X8.775Y-2.2
X3.2Y-5.6
X3.2Y-2.2
X8.8Y-5.6
T0
M30
